# xmcd
#
# Track frame offsets:
#	150
#	23491
#	58833
#	77635
#	94130
#	119176
#	152665
#	165728
#	226600
#	264226
#	316070
#
# Disc length: 4524 seconds
#
# Revision: 1
# Processed by: cddbd v1.5.1PL0 Copyright (c) Steve Scherf et al.
# Submitted via: audiograbber 1.83.01
#
DISCID=7e11aa0b
DTITLE=Fleetwood Mac - Dead Bust Blues
DYEAR=1970
DGENRE=Blues
TTITLE0=Sandy Man
TTITLE1=Got A Mind To Give Up Living
TTITLE2=Only You
TTITLE3=World In Harmony
TTITLE4=Stranger Blues
TTITLE5=I Can't Hold Out
TTITLE6=Oh Well
TTITLE7=Rattlesnake Shake
TTITLE8=Underway
TTITLE9=Coming Your Way
TTITLE10=Twist And Shout
EXTD=
EXTT0=
EXTT1=
EXTT2=
EXTT3=
EXTT4=
EXTT5=
EXTT6=
EXTT7=
EXTT8=
EXTT9=
EXTT10=
PLAYORDER=
